PathFileType	3	(X/Y/Z)	running_2__fused_aligned.trc
DataRate	CameraRate	NumFrames	NumMarkers	Units	OrigDataRate	OrigDataStartFrame	OrigNumFrames
100.0	100.0	7	19	mm	100.0	237	6395
Frame#	Time	pelvis			neck			head			hip_left			hip_right			knee_left			knee_right			ankle_left			ankle_right			heel_left			heel_right			toe_left			toe_right			shoulder_left			shoulder_right			elbow_left			elbow_right			wrist_left			wrist_right			
		X1	Y1	Z1	X2	Y2	Z2	X3	Y3	Z3	X4	Y4	Z4	X5	Y5	Z5	X6	Y6	Z6	X7	Y7	Z7	X8	Y8	Z8	X9	Y9	Z9	X10	Y10	Z10	X11	Y11	Z11	X12	Y12	Z12	X13	Y13	Z13	X14	Y14	Z14	X15	Y15	Z15	X16	Y16	Z16	X17	Y17	Z17	X18	Y18	Z18	X19	Y19	Z19	
237	2.36000	29.038425	949.961267	85.507206	15.095135	1502.269490	191.749046	29.365827	1581.654061	340.029683	103.820269	952.567605	80.574904	-45.743245	947.354992	90.439350	91.324946	551.559756	262.331183	-116.562282	526.523449	129.178166	74.756810	98.115113	313.610249	-179.160130	332.261020	-265.931079	71.634748	31.963801	293.467527	-177.295654	352.556710	-326.363351	72.178386	116.174199	538.541595	-190.186706	105.417085	-288.724820	176.614390	1484.767852	120.294255	-155.038896	1449.123041	165.226471	302.882658	1251.217169	69.113587	-278.143409	1199.402449	163.660491	370.199844	1225.228570	254.508571	-247.663879	1271.725665	403.498889
238	2.37000	27.210119	949.179957	85.822141	12.481464	1501.317453	192.811845	26.069558	1580.839845	341.058365	102.015207	951.765653	80.753530	-47.594785	946.594319	90.890596	91.342842	549.702457	256.534342	-115.370126	527.055731	137.242177	73.539105	103.848155	292.250339	-176.280781	325.318642	-245.308373	70.026778	40.035066	270.542164	-174.668494	342.850330	-304.736760	71.598385	113.892297	511.194137	-186.552746	105.604693	-259.636306	174.792210	1483.551693	123.300380	-157.733180	1447.822377	165.739630	298.681070	1247.798851	74.477295	-277.443766	1196.649752	163.711909	357.893464	1219.142704	260.929940	-244.737940	1263.454249	402.264186
239	2.38000	25.381812	948.398647	86.137077	9.867793	1500.365415	193.874644	22.773289	1580.025629	342.087047	100.210146	950.963701	80.932156	-49.446324	945.833645	91.341842	91.360738	547.845158	250.737502	-114.177970	527.588014	145.306189	72.321400	109.581197	270.890429	-173.401431	318.376264	-224.685667	68.418808	48.106331	247.616800	-172.041333	333.143950	-283.110168	71.018383	111.610395	483.846680	-182.918786	105.792302	-230.547792	172.970030	1482.335534	126.306505	-160.427465	1446.521712	166.252788	294.479482	1244.380532	79.841002	-276.744123	1193.897056	163.763327	345.587084	1213.056839	267.351309	-241.812001	1255.182832	401.029484
240	2.39000	23.553506	947.617336	86.452013	7.254122	1499.413377	194.937443	19.477020	1579.211413	343.115729	98.405084	950.161750	81.110782	-51.297863	945.072972	91.793088	91.378634	545.987859	244.940661	-112.985814	528.120296	153.370200	71.103695	115.314239	249.530519	-170.522081	311.433886	-204.062960	66.810838	56.177596	224.691436	-169.414172	323.437570	-261.483577	70.438382	109.328493	456.499222	-179.284827	105.979911	-201.459278	171.147849	1481.119374	129.312630	-163.121749	1445.221048	166.765946	290.277893	1240.962213	85.204710	-276.044480	1191.144359	163.814745	333.280704	1206.970974	273.772678	-238.886062	1246.911416	399.794782
241	2.40000	21.725199	946.836026	86.766948	4.640451	1498.461339	196.000242	16.180751	1578.397196	344.144411	96.600022	949.359798	81.289408	-53.149403	944.312299	92.244334	91.396530	544.130560	239.143820	-111.793658	528.652578	161.434211	69.885991	121.047281	228.170608	-167.642731	304.491507	-183.440254	65.202869	64.248861	201.766073	-166.787011	313.731190	-239.856986	69.858381	107.046591	429.151765	-175.650867	106.167519	-172.370764	169.325669	1479.903215	132.318755	-165.816034	1443.920384	167.279105	286.076305	1237.543895	90.568417	-275.344837	1188.391663	163.866164	320.974324	1200.885108	280.194047	-235.960123	1238.639999	398.560079
242	2.41000	19.896893	946.054716	87.081884	2.026780	1497.509302	197.063041	12.884482	1577.582980	345.173093	94.794960	948.557846	81.468034	-55.000942	943.551626	92.695580	91.414426	542.273261	233.346979	-110.601502	529.184860	169.498222	68.668286	126.780323	206.810698	-164.763382	297.549129	-162.817548	63.594899	72.320126	178.840709	-164.159850	304.024810	-218.230395	69.278379	104.764689	401.804307	-172.016907	106.355128	-143.282250	167.503489	1478.687056	135.324880	-168.510318	1442.619719	167.792263	281.874717	1234.125576	95.932125	-274.645194	1185.638967	163.917582	308.667945	1194.799243	286.615416	-233.034184	1230.368583	397.325377
243	2.42000	18.068586	945.273406	87.396819	-0.586891	1496.557264	198.125840	9.588213	1576.768764	346.201775	92.989899	947.755895	81.646660	-56.852481	942.790953	93.146826	91.432321	540.415963	227.550138	-109.409346	529.717143	177.562233	67.450581	132.513365	185.450788	-161.884032	290.606751	-142.194841	61.986929	80.391391	155.915345	-161.532689	294.318430	-196.603804	68.698378	102.482787	374.456849	-168.382948	106.542737	-114.193736	165.681308	1477.470897	138.331005	-171.204603	1441.319055	168.305422	277.673129	1230.707258	101.295832	-273.945551	1182.886270	163.969000	296.361565	1188.713378	293.036785	-230.108245	1222.097166	396.090675
